# xmcd
# 
# Track frame offsets:
#     150
#     18746
#     37161
#     58826
#     81583
#     95624
#     111942
#     140452
#     170329
#     204094
#     230078
# 
# Disc length: 3503
# 
# Revision: 2
# Processed by: cddbd v1.5.2PL0 Copyright (c) Steve Scherf et al.
# Submitted via: fre:ac v1.0.17
# 
DISCID=9e0dad0b
DTITLE=Konrad Bones Windisch and Friends - Almfrieden Blues-Abend CD2
DYEAR=2007
DGENRE=Blues
TTITLE0=Crossroads
TTITLE1=One Meat Ball
TTITLE2=Mojo Hand
TTITLE3=Come On in My Kitchen
TTITLE4=Play with Fire
TTITLE5=Grinnin' in Ya Face
TTITLE6=Gospel Medley
TTITLE7=Walking the Dog
TTITLE8=Let the good times roll
TTITLE9=Red Hot
TTITLE10=Minnie the Moocher
EXTD=Live Concert (Live Audio Mix) im GH Almfrieden, Hohe Wand Austria, 25.10.2007         \t\t\nKonrad Bones Windisch and Friends www.bones.at       \nVoc: \tCD1 Track 01-12 , CD2 Track 06 - 11 ,   \nGtr: \tCD1 Track 01-12 , CD2 Track 07 - 11 , \nChristoph
EXTD=Schellhorn www.christoph-schellhorn.at\nGtr: \tCD1 Track 06-12 , CD2 Track 07 - 11 ,\nB.Voc:  CD1 Track 11\t, CD2 Track 07 - 11 ,             \nErich Metzenbauer \nHarp:  CD1 Track 06-12 , CD2 Track 01-04,06,07,09-11 , \nB.Voc: CD2 Track 09 , \nMr. 
EXTD=A.B. Andi Bauer (JSP Jigsawpuzzle) www.jigsawpuzzle.at\nVoc:\tCD2 Track 01-05 , \nGtr: \tCD2 Track 01-05 , \nHarp:   CD2 Track 06 , \nB.Voc:\tCD2 Track 09-11 , \nThe "Duke" Rudi Langer (JSP)  www.jigsawpuzzle.at\nGtr:  \tCD1 Track 08-12 , CD2 Track 0
EXTD=1-05 , 07-12 , \nB. Voc: CD2 Track 04,09,11 , 
EXTT0=
EXTT1=
EXTT2=
EXTT3=
EXTT4=
EXTT5=
EXTT6=
EXTT7=
EXTT8=
EXTT9=
EXTT10=
PLAYORDER=
